M48
; DRILL file {KiCad 7.0.3} date Fri 02 Jun 2023 06:12:28 PM CDT
; FORMAT={3:3/ absolute / metric / suppress leading zeros}
; #@! TF.CreationDate,2023-06-02T18:12:28-05:00
; #@! TF.GenerationSoftware,Kicad,Pcbnew,7.0.3
; #@! TF.FileFunction,MixedPlating,1,4
FMAT,2
METRIC,TZ
; #@! TA.AperFunction,Plated,PTH,ComponentDrill
T1C0.300
; #@! TA.AperFunction,Plated,PTH,ViaDrill
T2C0.300
; #@! TA.AperFunction,Plated,PTH,ComponentDrill
T3C0.300
; #@! TA.AperFunction,Plated,PTH,ViaDrill
T4C0.400
; #@! TA.AperFunction,Plated,PTH,ViaDrill
T5C0.406
; #@! TA.AperFunction,Plated,PTH,ComponentDrill
T6C0.500
; #@! TA.AperFunction,Plated,PTH,ComponentDrill
T7C0.700
; #@! TA.AperFunction,Plated,PTH,ComponentDrill
T8C0.800
; #@! TA.AperFunction,Plated,PTH,ComponentDrill
T9C0.813
; #@! TA.AperFunction,Plated,PTH,ViaDrill
T10C1.000
; #@! TA.AperFunction,Plated,PTH,ComponentDrill
T11C1.000
; #@! TA.AperFunction,Plated,PTH,ComponentDrill
T12C1.100
; #@! TA.AperFunction,Plated,PTH,ComponentDrill
T13C1.200
; #@! TA.AperFunction,Plated,PTH,ComponentDrill
T14C1.800
; #@! TA.AperFunction,Plated,PTH,ComponentDrill
T15C2.000
; #@! TA.AperFunction,Plated,PTH,ComponentDrill
T16C3.048
; #@! TA.AperFunction,Plated,PTH,ComponentDrill
T17C4.300
; #@! TA.AperFunction,NonPlated,NPTH,ComponentDrill
T18C3.000
; #@! TA.AperFunction,NonPlated,NPTH,ComponentDrill
T19C4.300
%
G90
G05
T1
X1185Y30210
X6635Y37060
X6652Y31828
X8535Y31335
X14860Y38385
X78139Y4741
X78214Y1191
X78439Y6016
X79314Y5491
X88889Y735
X99789Y735
X110309Y9912
X113214Y9233
X113989Y735
X115439Y9233
X117613Y9233
X118789Y9233
X119826Y41235
X119826Y39285
X119826Y36685
X121136Y40585
X121586Y38960
X121661Y36260
X121661Y38110
X121676Y34360
X121876Y37235
X122801Y24323
X123013Y9903
X123326Y25198
X124076Y24023
X124589Y14808
X124863Y4535
X125751Y34060
X126252Y735
X127626Y24098
T2
X506Y46536
X526Y48223
X1176Y27523
X1176Y25023
X1676Y44773
X1676Y40023
X2700Y6200
X4426Y27523
X4426Y25023
X8426Y773
X10676Y773
X12676Y7023
X13826Y89673
X14676Y7773
X16926Y38604
X17590Y7023
X17926Y21273
X18176Y52023
X18176Y50023
X18426Y96523
X18676Y25023
X18700Y31200
X18900Y28000
X19426Y15523
X19526Y84173
X19676Y65523
X19676Y47273
X19676Y7023
X19781Y36878
X19926Y44023
X20926Y55423
X21126Y94423
X21476Y42628
X21676Y82773
X21676Y81273
X21788Y57185
X22326Y36068
X22676Y28273
X23340Y7273
X23426Y86023
X23673Y46023
X23676Y66023
X23876Y47123
X23926Y50023
X24026Y48023
X24426Y15523
X24530Y46317
X24676Y53023
X25676Y31273
X26800Y43000
X28026Y43923
X28226Y29023
X28326Y31123
X28776Y52373
X28840Y1023
X28900Y12000
X29000Y9700
X29900Y46400
X29926Y44823
X31426Y38773
X31626Y96323
X32340Y1023
X32500Y10600
X32900Y5400
X32900Y3900
X32926Y14773
X33026Y39023
X35526Y19723
X35926Y39773
X37426Y35773
X43800Y94923
X44176Y38423
X44926Y88523
X45676Y39773
X47676Y35023
X48226Y19673
X48676Y91273
X50676Y87273
X51076Y91323
X53919Y87041
X56926Y34273
X56926Y24023
X58028Y24123
X58100Y33473
X58303Y42995
X58879Y43570
X58911Y34773
X59026Y89423
X59526Y33473
X59676Y69023
X59676Y42373
X59800Y99400
X59801Y82698
X59827Y64223
X59926Y73673
X60366Y83263
X60477Y54773
X60617Y24064
X60926Y78523
X61176Y69023
X61326Y38473
X61426Y89773
X61426Y33473
X62226Y57113
X63426Y50023
X63626Y90023
X63676Y54023
X63867Y45214
X64200Y98800
X64426Y41049
X65776Y76473
X67176Y98523
X67176Y95273
X67176Y90273
X67476Y42173
X67926Y63023
X67976Y59473
X68152Y41499
X68312Y40680
X68376Y56373
X68480Y46327
X69226Y59523
X69439Y46036
X69776Y41473
X69826Y31897
X69826Y32697
X69826Y31023
X70176Y98523
X70226Y16623
X71626Y70123
X73126Y623
X73426Y98523
X73676Y93273
X74176Y9023
X74176Y2523
X76176Y93273
X76426Y98523
X76826Y96673
X78026Y15023
X78926Y95273
X79476Y11473
X79601Y63823
X81526Y78823
X81526Y77423
X82176Y75773
X82226Y88973
X82826Y59523
X84276Y11273
X84300Y73848
X85100Y81200
X85258Y78880
X85276Y73073
X85276Y68923
X85426Y84523
X86176Y58323
X86276Y88973
X86676Y93273
X86676Y1273
X87926Y87423
X88676Y95273
X88926Y81423
X89001Y86248
X89426Y99273
X90375Y18722
X90500Y12523
X91001Y84174
X91001Y83300
X92076Y86473
X92171Y81268
X92266Y80325
X92426Y98800
X92426Y95523
X92626Y82573
X94226Y83823
X95676Y86773
X95800Y14200
X96626Y101573
X96926Y93673
X97650Y83149
X97931Y12836
X98000Y11583
X98176Y81223
X98726Y80023
X98800Y87000
X99077Y12333
X99225Y84724
X99428Y88400
X99476Y82873
X99476Y80373
X99827Y90200
X100276Y12333
X101114Y12435
X102125Y84669
X102226Y13373
X102400Y92100
X103026Y84723
X103500Y89500
X103726Y81072
X104614Y12435
X104676Y84673
X105016Y95633
X105700Y89600
X106900Y94800
X106900Y93100
X107526Y17124
X108000Y91800
X108350Y17100
X109226Y82773
X111976Y12223
X113726Y64423
X113726Y58223
X114400Y87700
X114626Y17107
X116576Y59073
X117226Y17107
X118176Y75023
X118176Y71773
X118176Y68023
X119689Y79294
X120426Y53773
X120426Y52023
X124883Y52588
X125326Y51923
X125726Y66123
X125926Y60923
X126526Y49923
X127676Y9023
X128176Y1523
X128227Y45999
X128256Y48153
X128726Y47423
X128726Y46623
X129826Y16723
X129926Y103023
X131226Y74823
X132000Y72900
X132900Y66100
X132902Y59100
X133226Y72823
X133446Y65054
X133575Y82273
X133575Y32323
X133575Y22823
X133650Y60850
X134385Y61985
X134400Y12800
X134500Y93300
X135100Y43200
X135224Y65093
X136075Y89023
X136075Y87723
X136075Y86423
X136175Y79023
X136175Y77723
X136175Y76423
X136175Y69523
X136175Y68223
X136175Y66923
X136175Y59523
X136175Y58223
X136175Y56923
X136175Y39023
X136175Y37723
X136175Y36423
X136175Y29023
X136175Y27723
X136175Y26423
X136175Y19523
X136175Y18223
X136175Y16923
X136175Y10523
X136175Y9223
X136175Y7923
X137075Y89023
X137075Y86423
X137175Y79023
X137175Y76423
X137175Y69523
X137175Y66923
X137175Y59523
X137175Y56923
X137175Y39023
X137175Y36423
X137175Y29023
X137175Y26423
X137175Y19523
X137175Y16923
X137175Y10523
X137175Y7923
X158526Y87523
X158726Y37423
X158726Y18023
X158726Y9123
X158739Y68623
X158739Y59423
X158839Y77523
X158839Y27623
T3
X33926Y13673
X33926Y12673
X33926Y11673
X33926Y10673
X72176Y9573
X72176Y8573
X72176Y5023
X72176Y4023
T4
X5676Y27023
X15899Y52250
X16676Y32023
X16741Y63488
X17176Y32773
X17791Y63488
X17926Y77773
X17926Y34365
X17926Y33523
X19626Y41285
X20926Y70523
X23426Y60773
X23926Y70523
X24926Y26223
X26226Y21223
X29926Y85523
X29926Y83523
X29926Y81523
X29926Y79523
X29926Y77523
X29926Y75523
X29926Y73523
X29926Y71523
X29926Y69523
X29926Y67523
X29926Y65523
X29926Y63523
X29926Y61523
X29926Y29523
X29926Y25523
X33926Y32523
X33926Y29523
X36726Y20023
X38426Y31773
X38426Y29273
X38426Y26523
X38426Y23773
X38426Y21273
X39426Y36773
X43226Y86123
X43676Y32023
X44426Y87273
X44676Y26023
X44676Y24273
X45201Y94798
X46176Y35273
X46663Y34260
X46676Y32023
X47413Y33510
X47926Y26023
X47926Y24273
X50676Y35273
X50676Y32773
X50826Y19973
X50926Y25773
X50926Y22773
X51676Y33773
X51676Y24273
X52176Y35273
X52176Y22773
X52176Y19923
X52676Y32773
X52676Y25773
X52976Y34123
X53876Y34123
X54064Y20235
X54731Y20902
X55976Y18473
X59176Y24773
X60076Y74673
X60126Y76372
X60170Y80553
X61196Y74663
X62081Y24173
X62351Y37348
X62376Y38323
X62800Y24200
X64876Y18797
X65676Y32523
X65676Y26023
X65676Y25023
X65826Y22523
X66026Y38323
X66426Y33273
X69726Y29373
X71276Y87673
X71426Y78773
X72876Y90023
X74476Y75123
X82626Y71473
X82676Y66473
X85426Y63273
X86638Y3323
X86726Y5323
X87376Y7023
X93976Y10823
X102426Y9173
X103776Y13073
X105826Y10123
X123026Y20024
X126826Y20023
X127926Y38273
X128726Y31428
T5
X45426Y86224
T6
X15926Y100523
X18426Y100523
X25426Y41773
X28976Y44823
X28976Y42823
X31176Y87273
X33426Y87273
X35676Y87273
X37926Y87273
X40426Y90023
X43176Y100523
X48676Y89474
X49926Y100523
X49926Y91474
X50176Y95273
X50926Y89474
X52176Y91474
X53176Y89474
X57176Y89474
X58426Y91474
X59176Y100523
X60426Y79523
X60426Y77523
X60776Y58123
X62676Y55023
X62676Y53023
X62676Y51023
X62676Y49023
X62676Y47023
X62676Y45023
X63226Y16573
X63426Y96523
X64176Y100523
X64926Y47023
X64976Y53023
X64976Y51023
X64976Y49023
X65226Y16573
X65676Y40273
X65826Y96523
X66176Y88523
X66426Y42773
X67176Y100523
X67226Y16573
X67926Y36773
X68426Y88523
X68676Y96523
X69226Y16573
X70426Y100523
X71226Y16573
X71926Y96523
X73226Y16573
X73426Y100523
X74576Y14173
X74926Y96523
X76576Y14173
X76576Y11873
X76676Y100523
X77326Y16473
X79326Y16473
X79426Y59523
X81676Y59523
X83926Y59523
X84176Y76773
X84176Y74773
X86126Y17273
X86226Y59523
X86926Y82523
X87926Y80523
X88176Y84523
X88926Y13773
X88926Y10023
X89426Y82523
X89926Y100523
X90426Y97023
X92176Y100523
X93926Y80523
X104676Y82723
X106976Y82723
X107676Y15273
X107676Y13273
X107676Y11273
X107676Y9273
X107926Y84773
X110176Y84773
X111426Y82773
X112176Y100523
X115676Y100523
X119426Y100523
X129526Y15323
X131526Y15323
X133526Y15323
X135526Y15323
X138926Y100523
X138926Y97273
T7
X80526Y13948
X81326Y12198
X82126Y13948
X82926Y12198
X83726Y13948
T8
X77676Y9273
X79676Y9273
X81676Y9273
X83676Y9273
X85676Y9273
T9
X20926Y100428
X20926Y96618
X23676Y100428
X23676Y96618
X23976Y91433
X23976Y87623
X27426Y100973
X27426Y96073
X30176Y100428
X30176Y96618
X32926Y100428
X32926Y96618
X35676Y100428
X35676Y96618
X38426Y100428
X38426Y96618
X41176Y100428
X41176Y96618
X41523Y34123
X41523Y31583
X41523Y29043
X41523Y26503
X41523Y23963
X41523Y21423
X43545Y91600
X45176Y100428
X45176Y96618
X47355Y91600
X47926Y100428
X47926Y96618
X51926Y100428
X51926Y96618
X54676Y100428
X54676Y96618
X57326Y100428
X57326Y96618
X61176Y100631
X61176Y96821
X77926Y92928
X77926Y89118
X79676Y100428
X79676Y96618
X80726Y92928
X80726Y89118
X82426Y100428
X82426Y96618
X83926Y92928
X83926Y89118
X85176Y100428
X85176Y96618
X87926Y100428
X87926Y96618
X89426Y92928
X89426Y89118
X92176Y92928
X92176Y89118
X94926Y100428
X94926Y96618
X94926Y92928
X94926Y89118
X97926Y100428
X97926Y96618
X98176Y92928
X98176Y89118
X100926Y100428
X100926Y96618
X129626Y92928
X129626Y89118
X129926Y100428
X129926Y96618
X132376Y92928
X132376Y89118
X132676Y101523
X132676Y96623
X135926Y100428
X135926Y96618
T10
X102000Y89600
X109662Y89650
T11
X1458Y92309
X1458Y89769
X1458Y87229
X1458Y84689
X1458Y82149
X1458Y79609
X1458Y77069
X1458Y74529
X1458Y71989
X1458Y69449
X1458Y66909
X1458Y64369
X1576Y21523
X1856Y11523
X3998Y92309
X3998Y89769
X3998Y87229
X3998Y84689
X3998Y82149
X3998Y79609
X3998Y77069
X3998Y74529
X3998Y71989
X3998Y69449
X3998Y66909
X3998Y64369
X4116Y21523
X4396Y11523
X6538Y92309
X6538Y89769
X6538Y87229
X6538Y84689
X6538Y82149
X6538Y79609
X6538Y77069
X6538Y74529
X6538Y71989
X6538Y69449
X6538Y66909
X6538Y64369
X6656Y21523
X6936Y11523
X9078Y92309
X9078Y89769
X9078Y87229
X9078Y84689
X9078Y82149
X9078Y79609
X9078Y77069
X9078Y74529
X9078Y71989
X9078Y69449
X9078Y66909
X9078Y64369
X9196Y21523
X9476Y11523
X11618Y92309
X11618Y89769
X11618Y87229
X11618Y84689
X11618Y82149
X11618Y79609
X11618Y77069
X11618Y74529
X11618Y71989
X11618Y69449
X11618Y66909
X11618Y64369
X11736Y21523
X13340Y11023
X13426Y3623
X14158Y74529
X14158Y71989
X14158Y69449
X14158Y66909
X14158Y64369
X14276Y21523
X15926Y3623
X16590Y11023
X18426Y3623
X19840Y11023
X20926Y3623
X23090Y11023
X23426Y3623
X25926Y3623
X26840Y11023
X28426Y3623
X30590Y11023
X30926Y3623
X54176Y32273
X54176Y29273
X54176Y26273
X59176Y32273
X59176Y29273
X59176Y26273
X64176Y32273
X64176Y29273
X64176Y26273
T12
X151986Y91523
X151986Y72823
X151986Y63323
X152086Y81623
X152086Y41523
X152086Y31723
X152086Y22123
X152086Y13223
X157066Y91523
X157066Y72823
X157066Y63323
X157166Y81623
X157166Y41523
X157166Y31723
X157166Y22123
X157166Y13223
T13
X27142Y111606
X29392Y105356
X29642Y111606
X32142Y111606
X32642Y105356
X34642Y111606
X35892Y105356
X37142Y111606
X39142Y105356
X39642Y111606
X42142Y111606
X42392Y105356
X44642Y111606
X45642Y105356
X47142Y111606
X48892Y105356
X49642Y111606
X52142Y111606
X52142Y105356
X54642Y111606
X55392Y105356
X56892Y110856
X58642Y112356
X58642Y105356
X60142Y110856
X61892Y112356
X61892Y105356
X63392Y110856
X65142Y112356
X65142Y105356
X66642Y110856
X68392Y112356
X68392Y105356
X69892Y110856
X71642Y112356
X71642Y105356
X73142Y110856
X74892Y112356
X74892Y105356
X76392Y110856
X78142Y112356
X78142Y105356
X79642Y110856
X81392Y112356
X81392Y105356
X82892Y110856
X84642Y112356
X84642Y105356
X86142Y110856
X87892Y112356
X87892Y105356
X89392Y110856
X91142Y112356
X91142Y105356
X92642Y110856
X94392Y112356
X94392Y105356
X95892Y110856
X97642Y112356
X97642Y105356
X99142Y110856
X100892Y112356
X100892Y105356
X102392Y110856
X104142Y105356
X104892Y111606
X107392Y111606
X107392Y105356
X109892Y111606
X110642Y105356
X112392Y111606
X113892Y105356
X114892Y111606
X117142Y105356
X117392Y111606
X119892Y111606
X120392Y105356
X122392Y111606
X123642Y105356
X124892Y111606
X126892Y105356
X127392Y111606
X129892Y111606
X130142Y105356
X132392Y111606
X133392Y105356
X134892Y111606
X137392Y111606
T14
X10701Y16523
X16201Y16523
T15
X17026Y55223
X19526Y57423
X23226Y55223
X25126Y57423
X28826Y55223
T16
X28823Y39203
X28823Y16343
T17
X7632Y113856
X153342Y113606
T18
X3401Y16523
T19
X7432Y5663
X130622Y5663
T7
X78476Y12423G85X78476Y13723
G05
X85776Y12423G85X85776Y13723
G05
T0
M30
